<svg version="1.1" id="Layer_1" xmlns="http://www.w3.org/2000/svg" xmlns:xlink="http://www.w3.org/1999/xlink" x="0px" y="0px"
	 width="100%" viewBox="0 0 448 272" enable-background="new 0 0 448 272" xml:space="preserve">
<path fill="#000000" opacity="1.000000" stroke="none" 
	d="
M282.467957,273.000000 
	C281.079254,269.184235 282.333099,267.300232 286.491058,267.713257 
	C290.985962,268.159729 295.626923,266.589417 300.010559,269.385223 
	C300.008209,271.058990 300.004089,272.029510 300.000000,273.000000 
	C294.311951,273.000000 288.623932,273.000000 282.467957,273.000000 
z"/>
<path fill="#000000" opacity="1.000000" stroke="none" 
	d="
M258.449982,273.000000 
	C258.416168,271.128143 260.528931,268.654449 255.066040,268.760132 
	C260.154236,267.270203 263.965210,267.590271 267.632050,267.940643 
	C268.841248,269.746643 267.349060,270.948364 267.106689,272.668091 
	C264.299988,273.000000 261.599976,273.000000 258.449982,273.000000 
z"/>
<path fill="#000000" opacity="1.000000" stroke="none" 
	d="
M268.463196,273.000000 
	C268.891388,271.028473 269.722717,269.004883 272.046875,268.229401 
	C273.401520,268.858215 272.452759,271.023102 274.676422,271.334686 
	C276.652252,271.362091 276.660858,267.688934 279.315155,267.927521 
	C281.167175,268.959412 279.975067,271.014557 280.887207,272.694214 
	C276.975464,273.000000 272.950897,273.000000 268.463196,273.000000 
z"/>
<path fill="#000000" opacity="1.000000" stroke="none" 
	d="
M219.466125,273.000000 
	C221.682693,269.114258 230.674515,268.649719 233.972977,272.613953 
	C229.310745,273.000000 224.621490,273.000000 219.466125,273.000000 
z"/>
<path fill="#000000" opacity="1.000000" stroke="none" 
	d="
M165.454102,273.000000 
	C165.250916,269.238434 167.869095,269.350983 170.694733,269.180389 
	C173.276505,269.024536 175.193680,269.019318 174.986725,272.666565 
	C171.969406,273.000000 168.938812,273.000000 165.454102,273.000000 
z"/>
<path fill="#000000" opacity="1.000000" stroke="none" 
	d="
M176.460632,273.000000 
	C175.750153,271.893768 176.176315,270.634796 177.097000,270.557343 
	C180.706177,270.253723 184.346085,270.137909 187.965164,270.251556 
	C188.892349,270.280640 188.449509,271.587097 188.132294,272.678467 
	C184.307098,273.000000 180.614182,273.000000 176.460632,273.000000 
z"/>
<path fill="#000000" opacity="1.000000" stroke="none" 
	d="
M300.428467,273.000000 
	C300.004089,272.029510 300.008209,271.058990 300.114990,269.790100 
	C304.572662,266.561218 305.685394,267.062592 306.088348,272.588409 
	C304.285645,273.000000 302.571289,273.000000 300.428467,273.000000 
z"/>
<path fill="#000000" opacity="1.000000" stroke="none" 
	d="
M193.454102,273.000000 
	C195.510941,267.892548 200.500458,272.016663 203.625305,269.793121 
	C204.971207,271.283081 203.111191,271.653778 203.085663,272.780487 
	C199.969406,273.000000 196.938812,273.000000 193.454102,273.000000 
z"/>
<path fill="#000000" opacity="1.000000" stroke="none" 
	d="
M155.449982,273.000000 
	C155.304733,271.434265 155.609451,269.868530 156.070358,267.500336 
	C158.129196,270.746185 162.145691,269.438782 163.919128,272.739380 
	C161.299988,273.000000 158.599976,273.000000 155.449982,273.000000 
z"/>
<path fill="#000000" opacity="1.000000" stroke="none" 
	d="
M301.093842,84.936493 
	C303.596466,83.130302 306.022675,81.657974 308.711060,81.817879 
	C313.795715,82.120308 313.906433,79.525192 313.362549,75.584793 
	C312.572937,69.864586 313.636414,64.272118 316.296387,59.129108 
	C322.696777,46.754147 337.034241,44.753441 346.702667,54.854668 
	C348.419495,56.648354 349.874329,58.692825 351.518677,60.705341 
	C353.548492,60.248592 354.085815,58.281616 355.174408,56.972244 
	C360.751740,50.263660 367.562836,46.839714 376.334076,49.215588 
	C383.678223,51.204895 389.544617,59.470989 390.284698,68.277908 
	C390.368286,69.272705 390.357147,70.275970 390.376343,71.275566 
	C390.433746,74.264664 389.727570,77.545189 390.736481,80.166573 
	C391.899170,83.187599 395.787598,81.426132 398.369232,82.506683 
	C406.019592,85.708755 410.929749,94.113220 409.861511,103.296837 
	C409.198700,108.995148 407.626160,114.416580 404.096710,119.064842 
	C396.846344,128.613525 393.952484,139.313370 394.205566,151.309387 
	C394.602692,170.131729 394.199219,188.969803 394.404968,207.798264 
	C394.453064,212.201050 393.043060,213.521622 388.678345,213.490692 
	C364.183044,213.317123 339.685059,213.309464 315.190033,213.503067 
	C310.672638,213.538773 309.541565,211.932541 309.580170,207.689529 
	C309.755981,188.360519 309.538483,169.028000 309.701294,149.698761 
	C309.794464,138.631424 306.707520,128.776443 300.236694,119.796402 
	C295.083679,112.645195 292.683533,104.687447 294.618408,95.762306 
	C295.536865,91.525673 297.619904,88.045624 301.093842,84.936493 
M322.561310,136.779129 
	C323.977295,142.820419 328.276947,145.506348 333.982605,146.336914 
	C337.604736,146.864197 340.949402,145.604813 343.865356,143.612778 
	C349.149933,140.002625 354.218994,139.747757 359.582947,143.474670 
	C361.304443,144.670776 363.489319,145.314026 365.552490,145.882675 
	C371.567200,147.540375 377.543976,144.832993 380.197876,139.419510 
	C382.827545,134.055481 381.772675,127.636772 376.472687,124.394493 
	C369.026001,119.838928 363.780518,114.096664 361.098389,105.671951 
	C359.823883,101.668678 356.276489,99.288002 351.781403,99.405502 
	C347.566162,99.515694 344.667328,101.850685 342.799774,105.541252 
	C342.349518,106.430977 341.804596,107.302269 341.532654,108.248024 
	C339.633270,114.854111 335.581390,119.451126 329.486633,122.740425 
	C324.472260,125.446625 321.832153,130.012558 322.561310,136.779129 
M360.173401,71.786301 
	C358.697815,77.252037 358.646606,82.640327 361.547821,87.679001 
	C364.164429,92.223389 368.372589,92.989861 372.452820,89.881935 
	C379.061615,84.847984 381.787933,71.072769 377.597687,63.886616 
	C374.637787,58.810467 369.924255,58.092617 365.603821,62.108326 
	C362.983398,64.543930 361.404175,67.623627 360.173401,71.786301 
M324.304962,71.743233 
	C324.034363,77.933273 325.499969,83.627380 329.629120,88.343040 
	C334.342987,93.726456 340.698853,92.493149 343.264740,85.824272 
	C345.535675,79.921997 344.863312,74.091972 342.519745,68.411003 
	C340.164368,62.701366 335.285095,58.587257 331.720001,59.638500 
	C326.278137,61.243164 324.903839,65.890076 324.304962,71.743233 
M381.592041,111.718163 
	C382.496185,114.466698 383.488220,117.286674 386.920715,117.550720 
	C390.200195,117.802986 392.615417,115.983994 394.456573,113.441025 
	C397.468750,109.280746 399.270416,104.731483 398.660950,99.460808 
	C398.358337,96.843750 397.500000,94.488823 394.886414,93.470352 
	C392.155396,92.406105 389.669006,93.180046 387.566803,95.209663 
	C383.106812,99.515648 381.208649,104.814148 381.592041,111.718163 
M307.780853,94.146118 
	C302.880219,100.872337 305.963562,113.490295 313.370087,116.901283 
	C316.571625,118.375710 319.183807,117.641830 321.012634,114.567009 
	C324.545624,108.627090 320.206116,96.174728 313.707336,93.599434 
	C311.943970,92.900665 310.161926,92.812958 307.780853,94.146118 
z"/>
<path fill="#000000" opacity="1.000000" stroke="none" 
	d="
M52.022781,118.829025 
	C48.319103,112.092339 46.268681,105.408684 47.536980,97.945648 
	C49.016735,89.238289 53.476753,83.175468 62.312893,81.127045 
	C65.274429,80.440475 65.984062,78.978195 65.810593,76.233833 
	C65.468330,70.819229 66.541489,65.590401 68.900780,60.724812 
	C75.645424,46.815266 90.972519,44.273582 101.949547,55.175617 
	C103.124619,56.342659 104.224937,57.584961 106.031921,59.507198 
	C107.822853,57.473770 109.308769,55.268475 111.273506,53.641357 
	C122.630745,44.235752 137.718094,48.251118 143.139709,61.964428 
	C145.015808,66.709755 145.583405,71.604256 145.341156,76.652779 
	C145.251984,78.511101 145.346741,79.996849 147.745361,80.867546 
	C162.928101,86.378845 168.048752,98.127991 162.098999,113.292496 
	C160.875275,116.411507 159.192673,119.265327 157.244522,121.991318 
	C151.758011,129.668396 149.014359,138.092865 149.172165,147.689941 
	C149.467926,165.676697 149.265320,183.671677 149.268326,201.663223 
	C149.268661,203.662277 149.342880,205.666122 149.229843,207.659088 
	C149.104385,209.871552 149.737350,213.046371 146.334808,212.925598 
	C143.392853,212.821152 143.839539,209.847702 143.832108,207.772476 
	C143.781433,193.612640 143.801666,179.452545 143.799881,165.292542 
	C143.799240,160.128296 143.927063,154.960373 143.775757,149.800583 
	C143.441971,138.416702 146.413345,128.086838 153.166016,118.869095 
	C157.460815,113.006485 159.521301,106.509262 158.808517,99.173714 
	C158.010757,90.963394 152.942215,86.036644 144.685883,86.255341 
	C140.151886,86.375450 138.404785,84.936531 139.700897,80.429443 
	C141.184631,75.269920 140.560501,70.185654 138.838943,65.229050 
	C136.663696,58.966198 132.656082,54.399273 125.765282,53.681305 
	C119.599129,53.038841 114.914909,56.167191 111.291267,60.956917 
	C105.616837,68.457359 105.632622,68.469307 100.231827,61.165619 
	C95.995224,55.436310 89.473396,52.578293 83.870255,53.995590 
	C77.246376,55.671085 72.312111,61.790295 71.409737,69.850769 
	C70.984772,73.646797 70.842545,77.511154 71.812706,81.279228 
	C72.705612,84.747200 71.477058,86.177132 67.866333,86.278267 
	C56.228958,86.604218 50.115627,94.794640 52.650467,106.486092 
	C53.578403,110.766037 55.327824,114.690254 57.915981,118.251488 
	C64.488815,127.295509 67.626923,137.283508 67.427971,148.605148 
	C67.088501,167.923416 67.338814,187.252014 67.329292,206.576263 
	C67.328552,208.072449 67.314034,209.577194 67.156967,211.062210 
	C67.018982,212.366821 66.193657,213.171951 64.837463,213.230179 
	C63.417152,213.291168 62.669044,212.384308 62.469627,211.137802 
	C62.234451,209.667740 62.104504,208.161362 62.122856,206.673126 
	C62.367275,186.855667 61.743988,167.038559 62.444374,147.215424 
	C62.817009,136.668625 58.636627,127.407372 52.022781,118.829025 
z"/>
<path fill="#000000" opacity="1.000000" stroke="none" 
	d="
M75.536377,126.935707 
	C77.617012,123.074127 80.646919,120.723961 84.066399,118.924202 
	C87.820274,116.948456 90.273224,114.055168 91.631134,110.059868 
	C94.006493,103.070953 97.554787,96.871887 106.013474,97.018036 
	C114.183090,97.159187 117.613480,103.130905 119.751648,110.094994 
	C121.046814,114.313400 123.931709,117.134125 127.753059,119.240143 
	C132.417847,121.810989 136.204712,125.280075 137.223709,130.827606 
	C139.413071,142.746719 129.456116,151.682053 117.654213,148.460770 
	C108.316147,145.911972 103.287178,145.867432 93.871758,148.453217 
	C87.491928,150.205307 81.847305,148.867233 77.462166,144.014069 
	C73.006516,139.082886 72.495003,133.306290 75.536377,126.935707 
M86.747131,123.294662 
	C86.177406,123.637497 85.586784,123.950150 85.041168,124.327812 
	C79.219086,128.357773 77.336800,134.373611 80.355621,139.265457 
	C83.196648,143.869202 89.938286,145.737350 95.408089,142.220169 
	C102.468666,137.680099 108.890411,137.347229 115.663124,142.230942 
	C116.450226,142.798523 117.457184,143.119537 118.408974,143.390778 
	C123.949608,144.969742 129.282639,142.865646 131.643646,138.219849 
	C133.958466,133.664886 132.719711,128.630341 127.428978,125.371750 
	C120.450218,121.073494 115.428993,115.680229 113.212074,107.604042 
	C112.345520,104.447212 109.692635,102.421204 106.085426,102.278351 
	C102.467270,102.135071 100.146378,104.075684 98.547150,107.052780 
	C97.763451,108.511696 97.075417,110.045464 96.547119,111.613747 
	C94.886536,116.543289 92.023827,120.456909 86.747131,123.294662 
z"/>
<path fill="#000000" opacity="1.000000" stroke="none" 
	d="
M84.323196,93.931801 
	C75.938461,86.253296 73.078445,73.938065 77.360832,65.072762 
	C81.257385,57.006176 89.781830,55.604355 95.539810,62.430351 
	C101.935242,70.012032 103.191391,78.890373 100.139618,88.192467 
	C98.182388,94.158279 91.720398,98.811752 84.323196,93.931801 
M83.557465,65.118027 
	C79.356766,71.710793 80.143837,82.199837 85.266151,87.888931 
	C89.029160,92.068329 93.346619,91.477661 95.324699,86.268555 
	C98.109146,78.935936 96.477539,72.126480 91.853027,66.068649 
	C89.910507,63.524059 87.237335,62.094910 83.557465,65.118027 
z"/>
<path fill="#000000" opacity="1.000000" stroke="none" 
	d="
M110.089111,84.322227 
	C109.002319,75.781456 110.479210,68.272812 116.219788,62.172794 
	C122.443420,55.559456 130.670776,57.126987 134.155991,65.492065 
	C137.160034,72.702271 136.236786,79.815819 132.933319,86.683044 
	C129.949158,92.886475 124.666443,96.729591 119.994675,95.943649 
	C113.785568,94.899055 111.470802,90.222878 110.089111,84.322227 
M121.746017,64.187492 
	C114.744232,69.885620 114.253937,77.500290 115.712395,85.529091 
	C116.131813,87.837982 117.708435,89.849144 120.189041,90.485939 
	C122.796997,91.155418 124.762016,89.680481 126.180496,87.747932 
	C130.582565,81.750511 132.062012,75.124451 129.577805,67.967125 
	C128.440735,64.691071 126.328369,62.480961 121.746017,64.187492 
z"/>
<path fill="#000000" opacity="1.000000" stroke="none" 
	d="
M68.405457,90.941071 
	C77.272209,95.560555 81.896683,105.665024 79.360512,114.125275 
	C77.279320,121.067810 71.179062,123.464645 65.349571,119.204407 
	C58.767509,114.394180 56.045235,107.503777 57.035057,99.491776 
	C57.862080,92.797523 61.022102,90.588913 68.405457,90.941071 
M62.438793,105.774117 
	C63.454342,109.169182 64.797096,112.413353 67.700851,114.639954 
	C70.675453,116.920868 73.732925,115.855911 74.471809,112.198807 
	C75.143524,108.874168 74.805077,105.555450 73.097984,102.510544 
	C71.308006,99.317780 69.469078,95.050751 65.326401,95.984497 
	C60.933552,96.974625 62.355194,101.586700 62.438793,105.774117 
z"/>
<path fill="#000000" opacity="1.000000" stroke="none" 
	d="
M137.045914,95.046074 
	C140.713135,91.387993 144.600143,89.227036 149.376068,91.546265 
	C153.945724,93.765335 154.473770,98.091537 154.362732,102.630417 
	C154.203110,109.154343 151.860168,114.635269 146.733627,118.729385 
	C144.042633,120.878448 140.939270,122.236496 137.472916,120.692543 
	C133.788788,119.051598 132.080124,115.896866 131.694016,112.004013 
	C131.073425,105.747032 132.726852,100.157600 137.045914,95.046074 
M141.212723,115.736382 
	C146.966034,112.806580 150.817047,105.109596 149.246628,99.679146 
	C148.054245,95.555984 145.539124,94.499245 142.304596,97.163414 
	C137.907242,100.785355 136.322098,105.833015 136.638550,111.354218 
	C136.758362,113.444611 137.653503,115.661736 141.212723,115.736382 
z"/>
</svg>